<svg width="87" height="41" viewBox="0 0 87 41" fill="none" xmlns="http://www.w3.org/2000/svg">
<path fill-rule="evenodd" clip-rule="evenodd" d="M27.9279 15.262L27.3199 12.4433H0L0.659925 15.262H7.28139L6.0219 22.5473L5.74245 23.5576L5.45737 24.3018C5.05655 23.8057 4.61284 23.5576 4.12624 23.5576L2.03184 23.6109L1.49174 23.7172L1.08119 23.9832L0.694966 24.4083L0.403361 24.8869C0.30557 25.4544 0.423148 26.1812 0.756095 27.0672C1.27792 28.0312 1.86765 28.9554 2.52065 29.8324L9.20402 38.8194H11.296L12.5065 38.1721L5.37181 28.6733L6.53436 28.257L7.57631 27.633L8.11641 27.2168L8.56045 26.7481L8.87649 27.024L9.25365 27.2442C10.0716 27.7228 10.6126 27.9987 10.8765 28.0717L12.6655 28.2371H16.4562L14.9548 36.9241L16.8163 38.8194H18.9018L22.9748 15.262H27.9279ZM17.0442 24.834L15.4206 25.3126L14.4487 25.5786L13.4271 25.8445L12.5343 25.9508L11.7913 25.7912L11.1787 25.4722C10.5205 25.1182 10.1623 24.5156 10.1041 23.6642L10.2052 23.0792L11.5566 15.2621H18.6995L17.0442 24.834ZM30.4076 5.74324L28.7083 3.50976L26.6191 3.50649L24.0724 5.74324L25.846 7.97999L27.9352 7.97661L30.4076 5.74324ZM51.3897 15.262L50.7299 12.4433H28.9362L29.5442 15.262H42.1614L41.3801 19.782H36.9484C36.4015 19.7716 35.8546 19.8072 35.3134 19.8885C33.7753 20.1378 32.5563 20.6537 31.6564 21.4364C30.5175 22.3969 29.8373 23.5176 29.6157 24.7982C29.3567 26.2922 29.4013 27.6352 29.7494 28.8272C30.0974 30.0193 30.8472 31.1843 31.9986 32.3223C33.025 33.39 34.0651 34.1284 35.1187 34.5376C36.1724 34.9467 37.3736 35.1511 38.7223 35.1508H39.9215L42.6653 41H44.7509L45.4066 40.5214L43.1094 34.5121L43.8653 34.193L44.4429 33.6612L44.8319 32.9702C44.9621 32.7028 45.048 32.4153 45.0861 32.1193L45.0707 31.0031C45.0601 30.259 44.7114 29.7627 44.0246 29.5141C43.7064 29.3274 43.3432 29.2353 42.9763 29.2482H40.8905L40.0614 29.5175C39.7972 29.6902 39.5652 29.9093 39.3761 30.1647L38.862 31.0272C38.7098 31.3091 38.6202 31.6217 38.5996 31.9428L38.5215 32.6973L38.603 33.1286L38.1149 33.2366C37.3231 32.989 36.7314 32.794 36.3399 32.6517L34.8734 31.4817C34.25 30.9638 33.806 30.2555 33.6067 29.461C33.381 28.7521 33.3449 27.9544 33.4983 27.068C33.7805 25.4377 34.4863 24.1701 35.6156 23.2652C36.745 22.3603 38.144 21.9083 39.8127 21.9092H45.2871L46.4367 15.262H51.3898H51.3897ZM47.098 12.3373H49.2356C47.6527 8.8275 46.1068 6.00905 44.5979 3.88193C42.7519 1.2945 41.342 0.000526144 40.3682 0H34.998L37.0192 3.98836H39.8346C40.2518 3.98836 40.73 4.2382 41.2692 4.73789C41.8949 5.30783 42.4485 5.95509 42.9172 6.6647L44.6264 9.44703C45.169 10.3666 45.63 11.3339 46.0036 12.3373H47.098ZM76.2074 15.262L75.5994 12.4433H52.1378L52.7458 15.262H58.2203C57.5367 15.7962 57.109 16.5615 56.9372 17.5578L56.8566 18.6255L56.9755 19.7463L57.2696 20.761L57.6711 21.4548C58.2625 22.1532 58.9463 22.7641 59.703 23.27C60.4508 23.7686 61.3708 24.1777 62.4629 24.4974L63.0088 24.6577L63.7631 24.818C63.0747 26.0312 62.1468 27.0855 61.0382 27.914L60.197 28.5547L59.3929 28.9818L58.856 27.8651L58.307 27.121L57.5558 26.6424C57.3155 26.4949 57.0387 26.421 56.7583 26.4296L54.6639 26.4828C54.4553 26.4828 54.307 26.536 54.2191 26.6424L53.8419 27.0144L53.5845 27.5994L53.4126 28.2907L53.2994 29.2479L53.5013 29.886C53.8151 30.4488 54.3124 30.8816 54.9066 31.1091C55.5858 31.3685 56.307 31.4948 57.0321 31.4812L61.5753 39.8833H63.6689L64.8917 38.8637L60.3777 31.1106C61.4969 30.8443 62.5725 30.4145 63.5711 29.8343C65.7039 28.558 67.3555 26.7497 68.5259 24.4093C69.0635 23.3932 69.4459 22.2994 69.6599 21.1655L69.7262 19.5702L69.4824 17.9741L68.8439 16.5387L67.9177 15.2624H76.2075L76.2074 15.262ZM65.3661 20.3671L64.9954 21.9092L64.4716 23.1323C64.0642 23.0371 63.6689 22.8944 63.2935 22.7069L62.2753 21.9628C61.3775 21.3248 61.0636 20.2258 61.3336 18.6658L61.8362 16.9641L62.621 15.741L63.1635 15.3156L63.7494 14.9436C64.0922 15.075 64.3956 15.2949 64.6301 15.5817L65.2381 16.5921C65.4133 16.9825 65.5065 17.5498 65.5175 18.2938C65.537 19.1804 65.4868 19.8719 65.3668 20.3683L65.3661 20.3671ZM86.9999 15.262L86.34 12.4433H73.9314L74.5394 15.262H77.1981L73.4286 37.0649L75.3935 38.8196H77.5048L81.5777 15.262H87H86.9999Z" fill="#0DA700"/>
</svg>
