<svg id="Layer_1" data-name="Layer 1" xmlns="http://www.w3.org/2000/svg" viewBox="0 0 512 512"><defs><style>.cls-1{fill:#0da700;fill-rule:evenodd;}</style></defs><path class="cls-1" d="M511.84,66,500.7,14.38H.16L12.25,66H133.57L110.49,199.5,105.37,218l-5.22,13.63Q89.13,218,75.76,218l-38.37,1-9.9,2L20,225.8l-7.08,7.79-5.34,8.77Q4.87,258,14,282.31A418.78,418.78,0,0,0,46.34,333L168.79,497.62h38.33l22.18-11.86-130.72-174,21.3-7.62L139,292.67l9.9-7.62,8.13-8.59,5.79,5.06,6.91,4q22.49,13.15,29.73,15.16l32.78,3h69.45L274.15,462.9l34.11,34.72h38.21L421.09,66ZM312.43,241.39l-29.74,8.77L264.88,255l-18.72,4.88-16.35,1.94-13.62-2.92L205,253.08q-18.09-9.72-19.69-33.12l1.85-10.72L211.89,66H342.76Z"/></svg>